# This file uses centimeters as units for non-parametric coordinates.

mtllib Cloud.mtl
g default
v 1.191222 -0.000000 5.009490
v 0.931698 0.000000 4.826253
v 0.733824 0.000000 4.860752
v 0.531702 0.000000 4.829863
v 0.280107 0.000000 4.703029
v 0.282502 0.000000 4.387241
v 0.411951 0.000000 4.116472
v 0.138058 0.000000 4.043754
v -0.159485 0.000000 4.043916
v -0.476464 0.000000 3.912654
v -0.752955 0.000000 3.588381
v -0.732025 0.000000 3.273266
v -0.479872 0.000000 2.842536
v -0.129569 0.000000 2.753184
v 0.164911 0.000000 2.799821
v -0.335283 0.000000 2.528146
v -0.786203 0.000000 1.911785
v -0.669144 0.000000 0.642997
v -0.299903 0.000000 0.246818
v 0.335231 0.000000 0.235522
v 0.628795 0.000000 0.292394
v 0.347291 0.000000 -0.060223
v 0.305053 0.000000 -0.455555
v -0.062794 0.000000 -0.099106
v -0.540515 0.000000 -0.056897
v -0.913037 0.000000 -0.203118
v -1.052347 0.000000 -1.642176
v -0.662928 0.000000 -2.115906
v -0.137962 0.000000 -2.215913
v 0.392079 0.000000 -2.160042
v -0.007820 0.000000 -2.264078
v -0.275603 0.000000 -2.616644
v -0.264601 0.000000 -3.062799
v -0.086124 0.000000 -3.506220
v 0.301662 0.000000 -3.599246
v 0.595352 0.000000 -3.540829
v 0.701991 0.000000 -3.747044
v 0.867788 0.000000 -3.865213
v 0.882540 0.000000 -4.087313
v 0.719793 0.000000 -4.154989
v 0.526784 0.000000 -4.048135
v 0.537824 0.000000 -4.354345
v 0.770284 0.000000 -4.495432
v 1.063628 0.000000 -4.436691
v 1.276744 0.000000 -4.151505
v 1.330343 0.000000 -3.840910
v 1.247890 0.000000 -3.577377
v 1.014533 0.000000 -3.278170
v 1.153771 0.000000 -2.998637
v 1.079913 0.000000 -2.725080
v 0.904391 0.000000 -2.458675
v 1.048600 0.000000 -2.113890
v 1.118266 0.000000 -1.625786
v 1.047483 0.000000 -1.398398
v 0.856555 0.000000 -1.179268
v 1.113480 0.000000 -0.715567
v 1.297020 0.000000 0.012146
v 1.183923 0.000000 1.016875
v 0.930327 0.000000 1.483171
v 1.227608 0.000000 1.787276
v 1.278084 0.000000 2.410741
v 1.123273 0.000000 2.907222
v 0.803752 0.000000 3.249151
v 0.994941 0.000000 3.591291
v 0.945567 0.000000 4.186632
v 0.787958 0.000000 4.464762
v 0.995498 0.000000 4.551782
v -1.249032 0.000000 -0.916955
v -0.943884 0.000000 1.242844
v 0.719793 0.200000 -4.154989
v 0.537824 0.200000 -4.354345
v 0.526784 0.200000 -4.048135
v 0.882540 0.200000 -4.087313
v 1.063628 0.200000 -4.436691
v 0.770284 0.200000 -4.495432
v 0.867788 0.200000 -3.865213
v 1.330343 0.200000 -3.840910
v 1.276744 0.200000 -4.151505
v 1.247890 0.200000 -3.577377
v 0.701991 0.200000 -3.747044
v 1.014533 0.200000 -3.278170
v 0.595352 0.200000 -3.540829
v 1.153771 0.200000 -2.998637
v 0.904391 0.200000 -2.458675
v 1.079913 0.200000 -2.725080
v 0.392079 0.200000 -2.160042
v 1.118266 0.200000 -1.625786
v 1.048600 0.200000 -2.113890
v 0.301662 0.200000 -3.599246
v -0.007820 0.200000 -2.264078
v -0.275603 0.200000 -2.616644
v -0.264601 0.200000 -3.062799
v -0.086124 0.200000 -3.506220
v 0.856555 0.200000 -1.179268
v 1.047483 0.200000 -1.398398
v 0.305053 0.200000 -0.455555
v 1.113480 0.200000 -0.715567
v -0.062794 0.200000 -0.099106
v -0.540515 0.200000 -0.056897
v -0.913037 0.200000 -0.203118
v -1.249032 0.200000 -0.916955
v -1.052347 0.200000 -1.642176
v -0.662928 0.200000 -2.115906
v -0.137962 0.200000 -2.215913
v 0.628795 0.200000 0.292394
v 1.183923 0.200000 1.016875
v 1.297020 0.200000 0.012146
v 0.347291 0.200000 -0.060223
v -0.299903 0.200000 0.246818
v 0.335231 0.200000 0.235522
v -0.786203 0.200000 1.911785
v -0.943884 0.200000 1.242844
v -0.669144 0.200000 0.642997
v -0.335283 0.200000 2.528146
v 0.930327 0.200000 1.483171
v 0.164911 0.200000 2.799821
v 1.278084 0.200000 2.410741
v 1.227608 0.200000 1.787276
v 0.803752 0.200000 3.249151
v 1.123273 0.200000 2.907222
v -0.732025 0.200000 3.273266
v -0.479872 0.200000 2.842536
v -0.129569 0.200000 2.753184
v -0.476464 0.200000 3.912654
v -0.752955 0.200000 3.588381
v 0.138058 0.200000 4.043754
v -0.159485 0.200000 4.043916
v 0.411951 0.200000 4.116472
v 0.994941 0.200000 3.591291
v 0.282502 0.200000 4.387241
v 0.787958 0.200000 4.464762
v 0.945567 0.200000 4.186632
v 0.733824 0.200000 4.860752
v 0.531702 0.200000 4.829863
v 0.280107 0.200000 4.703029
v 0.931698 0.200000 4.826253
v 0.995498 0.200000 4.551782
v 1.191222 0.200000 5.009490
vt 0.928171 0.961933
vt 0.929907 1.000000
vt 0.898236 0.970534
vt 0.937662 0.938930
vt 0.990617 0.955731
vt 0.967197 0.990879
vt 0.914017 0.918231
vt 0.957767 0.869629
vt 0.983422 0.905986
vt 0.923228 0.851552
vt 0.885669 0.922986
vt 0.870063 0.844979
vt 0.854438 0.913046
vt 0.856058 0.803174
vt 0.777259 0.774166
vt 0.821376 0.783238
vt 0.696304 0.795497
vt 0.715464 0.669669
vt 0.757236 0.725350
vt 0.830951 0.948196
vt 0.666769 0.845803
vt 0.675233 0.907732
vt 0.720870 0.951172
vt 0.782953 0.977621
vt 0.644763 0.651220
vt 0.685699 0.654036
vt 0.517461 0.634029
vt 0.624121 0.579282
vt 0.445156 0.635167
vt 0.393253 0.678643
vt 0.370662 0.730428
vt 0.408381 0.835231
vt 0.500413 0.887993
vt 0.586579 0.896410
vt 0.648969 0.853987
vt 0.475113 0.527044
vt 0.458207 0.399303
vt 0.569798 0.488313
vt 0.482213 0.590347
vt 0.386953 0.624304
vt 0.451485 0.562027
vt 0.172197 0.506640
vt 0.223235 0.589160
vt 0.310543 0.621615
vt 0.155681 0.400095
vt 0.386342 0.378070
vt 0.178494 0.323041
vt 0.328461 0.250757
vt 0.385661 0.318035
vt 0.197412 0.214412
vt 0.263443 0.216648
vt 0.041691 0.365318
vt 0.109862 0.383144
vt 0.153752 0.357094
vt 0.003375 0.275977
vt 0.008145 0.335950
vt 0.051634 0.201543
vt 0.021914 0.231230
vt 0.071717 0.166941
vt 0.182343 0.161170
vt 0.031764 0.152834
vt 0.074483 0.094636
vt 0.117982 0.106667
vt 0.029549 0.060509
vt 0.012455 0.083770
vt 0.000000 0.121548
vt 0.052746 0.044200
vt 0.086515 0.065231
vt 0.060361 0.000000
vt 0.929907 1.000000
vt 0.898236 0.970534
vt 0.928171 0.961933
vt 0.990617 0.955731
vt 0.967197 0.990879
vt 0.937662 0.938930
vt 0.957767 0.869629
vt 0.983422 0.905986
vt 0.914017 0.918231
vt 0.923228 0.851552
vt 0.870063 0.844979
vt 0.885669 0.922986
vt 0.856058 0.803174
vt 0.854438 0.913046
vt 0.777259 0.774166
vt 0.821376 0.783238
vt 0.715464 0.669669
vt 0.757236 0.725350
vt 0.666769 0.845803
vt 0.696304 0.795497
vt 0.830951 0.948196
vt 0.720870 0.951172
vt 0.675233 0.907732
vt 0.782953 0.977621
vt 0.644763 0.651220
vt 0.685699 0.654036
vt 0.624121 0.579282
vt 0.393253 0.678643
vt 0.445156 0.635167
vt 0.517461 0.634029
vt 0.370662 0.730428
vt 0.500413 0.887993
vt 0.408381 0.835231
vt 0.648969 0.853987
vt 0.586579 0.896410
vt 0.458207 0.399303
vt 0.569798 0.488313
vt 0.482213 0.590347
vt 0.475113 0.527044
vt 0.451485 0.562027
vt 0.386953 0.624304
vt 0.223235 0.589160
vt 0.172197 0.506640
vt 0.310543 0.621615
vt 0.155681 0.400095
vt 0.386342 0.378070
vt 0.328461 0.250757
vt 0.385661 0.318035
vt 0.178494 0.323041
vt 0.197412 0.214412
vt 0.263443 0.216648
vt 0.109862 0.383144
vt 0.041691 0.365318
vt 0.153752 0.357094
vt 0.008145 0.335950
vt 0.003375 0.275977
vt 0.021914 0.231230
vt 0.051634 0.201543
vt 0.182343 0.161170
vt 0.071717 0.166941
vt 0.074483 0.094636
vt 0.117982 0.106667
vt 0.031764 0.152834
vt 0.012455 0.083770
vt 0.029549 0.060509
vt 0.000000 0.121548
vt 0.086515 0.065231
vt 0.052746 0.044200
vt 0.060361 0.000000
vt 0.803840 0.423815
vt 0.803840 0.362870
vt 0.843646 0.362870
vt 0.843646 0.423815
vt 0.803840 0.451895
vt 0.843646 0.451895
vt 0.687847 0.113575
vt 0.687847 0.055703
vt 0.725113 0.055703
vt 0.725113 0.113575
vt 0.687847 0.002565
vt 0.725113 0.002565
vt 0.687847 0.162679
vt 0.725113 0.162679
vt 0.687847 0.218429
vt 0.725113 0.218429
vt 0.687847 0.270514
vt 0.725113 0.270514
vt 0.687847 0.321485
vt 0.725113 0.321485
vt 0.687847 0.371123
vt 0.725113 0.371123
vt 0.536873 0.065373
vt 0.573307 0.065373
vt 0.536873 0.154288
vt 0.573307 0.154288
vt 0.536873 0.195710
vt 0.573307 0.195710
vt 0.536873 0.235628
vt 0.573307 0.235628
vt 0.536873 0.320098
vt 0.573307 0.320098
vt 0.536873 0.452661
vt 0.573307 0.452661
vt 0.612361 0.185404
vt 0.648756 0.185404
vt 0.612361 0.270259
vt 0.648756 0.270259
vt 0.612361 0.325600
vt 0.648756 0.325600
vt 0.612361 0.439057
vt 0.648756 0.439057
vt 0.649183 0.094464
vt 0.686204 0.094464
vt 0.649183 0.157756
vt 0.686204 0.157756
vt 0.649183 0.221086
vt 0.686204 0.221086
vt 0.649183 0.331284
vt 0.686204 0.331284
vt 0.649183 0.382766
vt 0.686204 0.382766
vt 0.914309 0.438070
vt 0.914309 0.395401
vt 0.952732 0.395401
vt 0.952732 0.438070
vt 0.914309 0.372699
vt 0.952732 0.372699
vt 0.914309 0.333081
vt 0.952732 0.333081
vt 0.803840 0.149229
vt 0.803840 0.067305
vt 0.840565 0.067305
vt 0.840565 0.149229
vt 0.803840 0.002565
vt 0.840565 0.002565
vt 0.803840 0.230652
vt 0.840565 0.230652
vt 0.726512 0.269839
vt 0.726512 0.135145
vt 0.763657 0.135145
vt 0.763657 0.269839
vt 0.726512 0.002565
vt 0.763657 0.002565
vt 0.726512 0.357824
vt 0.763657 0.357824
vt 0.765176 0.369951
vt 0.765176 0.296237
vt 0.802468 0.296237
vt 0.802468 0.369951
vt 0.765176 0.230487
vt 0.802468 0.230487
vt 0.573696 0.245143
vt 0.573696 0.118892
vt 0.611443 0.118892
vt 0.611443 0.245143
vt 0.573696 0.002565
vt 0.611443 0.002565
vt 0.573696 0.358353
vt 0.611443 0.358353
vt 0.573696 0.433125
vt 0.611443 0.433125
vt 0.840663 0.123089
vt 0.840663 0.063690
vt 0.878363 0.063690
vt 0.878363 0.123089
vt 0.840663 0.002565
vt 0.878363 0.002565
vt 0.840663 0.204281
vt 0.878363 0.204281
vt 0.726512 0.463031
vt 0.726512 0.414465
vt 0.762384 0.414465
vt 0.762384 0.463031
vt 0.726512 0.357824
vt 0.762384 0.357824
vt 0.952973 0.179513
vt 0.952973 0.095962
vt 0.989481 0.095962
vt 0.989481 0.179513
vt 0.952973 0.245283
vt 0.952973 0.209600
vt 0.989948 0.209600
vt 0.989948 0.245283
vt 0.952973 0.179513
vt 0.989948 0.179513
vt 0.988326 0.245283
vt 0.988326 0.297136
vt 0.952973 0.297136
vt 0.952973 0.245283
vt 0.649184 0.453918
vt 0.649184 0.382766
vt 0.684769 0.382766
vt 0.684769 0.453918
vt 0.914762 0.188310
vt 0.914762 0.240345
vt 0.879327 0.240345
vt 0.879327 0.188310
vt 0.914762 0.309050
vt 0.879327 0.309050
vt 0.765176 0.160783
vt 0.765176 0.071395
vt 0.802598 0.071395
vt 0.802598 0.160783
vt 0.765176 0.002565
vt 0.802598 0.002565
vt 0.765176 0.230487
vt 0.802598 0.230487
vt 0.914539 0.002565
vt 0.914539 0.095884
vt 0.879327 0.095884
vt 0.879327 0.002565
vt 0.914539 0.188310
vt 0.879327 0.188310
vt 0.951261 0.221578
vt 0.951261 0.333081
vt 0.916150 0.333081
vt 0.916150 0.221578
vt 0.951261 0.170040
vt 0.916150 0.170040
vt 0.952973 0.095962
vt 0.952973 0.002565
vt 0.990317 0.002565
vt 0.990317 0.095962
vt 0.912895 0.309050
vt 0.912895 0.361187
vt 0.877486 0.361187
vt 0.877486 0.309050
vt 0.912895 0.423206
vt 0.877486 0.423206
vt 0.840663 0.306287
vt 0.840663 0.253173
vt 0.876365 0.253173
vt 0.876365 0.306287
vt 0.840663 0.204281
vt 0.876365 0.204281
vt 0.840663 0.362870
vt 0.876365 0.362870
vt 0.916150 0.123793
vt 0.916150 0.086641
vt 0.952913 0.086641
vt 0.952913 0.123793
vt 0.916150 0.050269
vt 0.952913 0.050269
vt 0.916150 0.170040
vt 0.952913 0.170040
vt 0.916150 0.002565
vt 0.952913 0.002565
vt 0.880799 0.423206
vt 0.880799 0.461034
vt 0.844345 0.461034
vt 0.844345 0.423206
vt 0.612361 0.002565
vt 0.648756 0.002565
vt 0.686204 0.002565
vt 0.649183 0.002565
vt 0.573307 0.002565
vt 0.536873 0.002565
vn 0.048601 0.896033 0.441320
vn -0.800867 0.410533 -0.435976
vn -0.696793 0.331596 0.636022
vn -0.216989 0.969863 0.110821
vn 0.408537 0.686420 -0.601603
vn -0.111010 0.696586 -0.708833
vn -0.210931 0.971072 -0.111922
vn 0.606886 0.794204 0.030500
vn 0.579308 0.772752 -0.259340
vn 0.481658 0.833630 0.270307
vn -0.312498 0.912942 -0.262454
vn 0.500055 0.862167 0.081323
vn -0.036879 0.994315 -0.099892
vn 0.628733 0.774062 -0.074322
vn 0.152563 0.988263 0.007816
vn 0.425191 0.883544 0.196373
vn -0.007240 0.999782 -0.019563
vn 0.575773 0.817609 0.000899
vn 0.538299 0.831340 -0.138228
vn -0.011436 0.974247 -0.225191
vn -0.203657 0.932650 0.297805
vn -0.430413 0.891963 0.138374
vn -0.647178 0.749772 -0.137848
vn -0.565050 0.570053 -0.596455
vn 0.160249 0.986955 -0.015488
vn 0.363082 0.907130 0.212808
vn -0.006079 0.997925 0.064109
vn 0.329496 0.936266 -0.121814
vn 0.111943 0.964932 0.237435
vn -0.025428 0.977828 0.207861
vn -0.182223 0.971731 0.150115
vn -0.253493 0.967026 0.024540
vn -0.305218 0.940521 -0.149205
vn -0.274895 0.855857 -0.438110
vn -0.039409 0.333280 -0.942004
vn -0.054313 0.998522 -0.002215
vn 0.354720 0.930782 0.088424
vn 0.371189 0.928435 -0.015093
vn -0.180585 0.980449 0.078165
vn -0.129378 0.938916 -0.318901
vn 0.020043 0.912582 -0.408403
vn -0.216898 0.970777 0.102703
vn -0.230425 0.972858 -0.021259
vn -0.197702 0.971893 -0.127824
vn -0.148676 0.975981 0.159236
vn 0.104104 0.994549 -0.005903
vn -0.037286 0.998723 0.034084
vn 0.370585 0.928157 0.034524
vn 0.192812 0.978569 -0.072288
vn 0.256187 0.965432 0.048061
vn 0.390818 0.893518 0.221106
vn -0.301659 0.946997 -0.110449
vn -0.231702 0.935027 -0.268401
vn -0.034944 0.848853 -0.527473
vn -0.193051 0.948407 0.251506
vn -0.299501 0.946556 0.119710
vn -0.049964 0.917961 0.393512
vn -0.080648 0.922273 0.378033
vn -0.147837 0.987056 0.062169
vn 0.599901 0.794911 -0.090748
vn -0.508140 0.853668 -0.114218
vn 0.252230 0.967052 -0.034490
vn 0.536952 0.833962 0.127239
vn 0.006743 0.664703 0.747077
vn -0.231294 0.709792 0.665356
vn -0.642580 0.675431 0.361778
vn -0.217791 0.709932 0.669749
vn 0.751680 0.354002 -0.556471
vn 0.943035 0.250270 0.219205
vn 0.048601 -0.896033 0.441320
vn -0.696793 -0.331596 0.636022
vn -0.800867 -0.410533 -0.435976
vn -0.216989 -0.969863 0.110821
vn -0.111010 -0.696586 -0.708833
vn 0.408537 -0.686420 -0.601603
vn -0.210931 -0.971072 -0.111922
vn 0.579308 -0.772752 -0.259340
vn 0.606886 -0.794204 0.030500
vn 0.481658 -0.833630 0.270307
vn -0.312498 -0.912942 -0.262454
vn 0.500055 -0.862167 0.081323
vn -0.036879 -0.994315 -0.099892
vn 0.628733 -0.774062 -0.074322
vn 0.425191 -0.883544 0.196373
vn 0.152563 -0.988263 0.007816
vn -0.007240 -0.999782 -0.019563
vn 0.538299 -0.831340 -0.138228
vn 0.575773 -0.817609 0.000899
vn -0.203657 -0.932650 0.297805
vn -0.011436 -0.974247 -0.225191
vn -0.430413 -0.891963 0.138374
vn -0.647178 -0.749772 -0.137848
vn -0.565050 -0.570053 -0.596455
vn 0.363082 -0.907130 0.212808
vn 0.160249 -0.986955 -0.015488
vn -0.006079 -0.997925 0.064109
vn 0.329496 -0.936266 -0.121814
vn 0.111943 -0.964932 0.237435
vn -0.025428 -0.977828 0.207861
vn -0.182223 -0.971731 0.150115
vn -0.253493 -0.967026 0.024540
vn -0.305218 -0.940521 -0.149205
vn -0.274895 -0.855857 -0.438110
vn -0.039409 -0.333280 -0.942004
vn -0.054313 -0.998522 -0.002215
vn -0.180585 -0.980449 0.078165
vn 0.371189 -0.928435 -0.015093
vn 0.354720 -0.930782 0.088424
vn -0.129378 -0.938916 -0.318901
vn 0.020043 -0.912582 -0.408402
vn -0.216898 -0.970777 0.102703
vn -0.230425 -0.972858 -0.021259
vn -0.197702 -0.971893 -0.127824
vn -0.148676 -0.975981 0.159236
vn 0.104104 -0.994549 -0.005903
vn -0.037286 -0.998723 0.034084
vn 0.192812 -0.978569 -0.072288
vn 0.370585 -0.928157 0.034524
vn 0.390818 -0.893518 0.221106
vn 0.256187 -0.965432 0.048061
vn -0.301659 -0.946997 -0.110449
vn -0.231702 -0.935027 -0.268401
vn -0.034944 -0.848853 -0.527473
vn -0.193051 -0.948407 0.251506
vn -0.299501 -0.946556 0.119710
vn -0.049964 -0.917961 0.393512
vn -0.080648 -0.922273 0.378033
vn -0.147837 -0.987056 0.062169
vn 0.599901 -0.794911 -0.090748
vn -0.508140 -0.853668 -0.114218
vn 0.536952 -0.833962 0.127239
vn 0.252230 -0.967052 -0.034490
vn 0.006743 -0.664703 0.747077
vn -0.231294 -0.709792 0.665356
vn -0.642580 -0.675431 0.361778
vn -0.217791 -0.709932 0.669748
vn 0.751680 -0.354002 -0.556471
vn 0.943035 -0.250270 0.219205
s 1
g Cloud_City
usemtl initialShadingGroup
f 70/72/1 71/70/2 72/71/3
f 73/75/4 74/73/5 75/74/6 70/72/1
f 70/72/1 75/74/6 71/70/2
f 76/78/7 77/76/8 78/77/9 73/75/4
f 73/75/4 78/77/9 74/73/5
f 76/78/7 79/79/10 77/76/8
f 80/81/11 81/80/12 79/79/10 76/78/7
f 82/83/13 83/82/14 81/80/12
f 82/83/13 81/80/12 80/81/11
f 82/83/13 84/84/15 85/85/16
f 82/83/13 85/85/16 83/82/14
f 86/89/17 87/86/18 88/87/19
f 86/89/17 89/90/20 90/88/21
f 86/89/17 84/84/15 82/83/13 89/90/20
f 91/92/22 89/90/20 92/91/23
f 90/88/21 89/90/20 91/92/22
f 92/91/23 89/90/20 93/93/24
f 86/89/17 88/87/19 84/84/15
f 86/89/17 94/94/25 95/95/26
f 86/89/17 95/95/26 87/86/18
f 96/99/27 97/96/28 94/94/25
f 96/99/27 94/94/25 86/89/17
f 98/98/29 86/89/17 99/97/30
f 96/99/27 86/89/17 98/98/29
f 99/97/30 86/89/17 100/100/31
f 101/102/32 86/89/17 102/101/33
f 100/100/31 86/89/17 101/102/32
f 103/104/34 86/89/17 104/103/35
f 102/101/33 86/89/17 103/104/34
f 105/108/36 106/105/37 107/106/38 108/107/39
f 108/107/39 107/106/38 97/96/28 96/99/27
f 109/110/40 106/105/37 110/109/41
f 110/109/41 106/105/37 105/108/36
f 111/112/42 106/105/37 112/111/43
f 113/113/44 106/105/37 109/110/40
f 112/111/43 106/105/37 113/113/44
f 114/114/45 115/115/46 111/112/42
f 111/112/42 115/115/46 106/105/37
f 116/118/47 117/116/48 118/117/49
f 116/118/47 118/117/49 115/115/46 114/114/45
f 116/118/47 119/119/50 120/120/51
f 116/118/47 120/120/51 117/116/48
f 121/122/52 119/119/50 122/121/53
f 123/123/54 119/119/50 116/118/47
f 122/121/53 119/119/50 123/123/54
f 124/125/55 119/119/50 125/124/56
f 125/124/56 119/119/50 121/122/52
f 126/127/57 119/119/50 127/126/58
f 127/126/58 119/119/50 124/125/55
f 128/129/59 129/128/60 119/119/50
f 128/129/59 119/119/50 126/127/57
f 130/132/61 131/130/62 132/131/63 128/129/59
f 128/129/59 132/131/63 129/128/60
f 133/134/64 131/130/62 134/133/65
f 135/135/66 131/130/62 130/132/61
f 134/133/65 131/130/62 135/135/66
f 136/137/67 137/136/68 131/130/62
f 136/137/67 131/130/62 133/134/64
f 138/138/69 137/136/68 136/137/67
f 40/1/70 41/3/71 42/2/72
f 39/4/73 40/1/70 43/6/74 44/5/75
f 40/1/70 42/2/72 43/6/74
f 38/7/76 39/4/73 45/9/77 46/8/78
f 39/4/73 44/5/75 45/9/77
f 38/7/76 46/8/78 47/10/79
f 37/11/80 38/7/76 47/10/79 48/12/81
f 36/13/82 48/12/81 49/14/83
f 36/13/82 37/11/80 48/12/81
f 36/13/82 50/16/84 51/15/85
f 36/13/82 49/14/83 50/16/84
f 30/17/86 52/19/87 53/18/88
f 30/17/86 31/21/89 35/20/90
f 30/17/86 35/20/90 36/13/82 51/15/85
f 32/22/91 33/23/92 35/20/90
f 31/21/89 32/22/91 35/20/90
f 33/23/92 34/24/93 35/20/90
f 30/17/86 51/15/85 52/19/87
f 30/17/86 54/26/94 55/25/95
f 30/17/86 53/18/88 54/26/94
f 23/27/96 55/25/95 56/28/97
f 23/27/96 30/17/86 55/25/95
f 24/29/98 25/30/99 30/17/86
f 23/27/96 24/29/98 30/17/86
f 25/30/99 26/31/100 30/17/86
f 68/32/101 27/33/102 30/17/86
f 26/31/100 68/32/101 30/17/86
f 28/34/103 29/35/104 30/17/86
f 27/33/102 28/34/103 30/17/86
f 21/36/105 22/39/106 57/38/107 58/37/108
f 22/39/106 23/27/96 56/28/97 57/38/107
f 19/40/109 20/41/110 58/37/108
f 20/41/110 21/36/105 58/37/108
f 17/42/111 69/43/112 58/37/108
f 18/44/113 19/40/109 58/37/108
f 69/43/112 18/44/113 58/37/108
f 16/45/114 17/42/111 59/46/115
f 17/42/111 58/37/108 59/46/115
f 15/47/116 60/49/117 61/48/118
f 15/47/116 16/45/114 59/46/115 60/49/117
f 15/47/116 62/51/119 63/50/120
f 15/47/116 61/48/118 62/51/119
f 12/52/121 13/53/122 63/50/120
f 14/54/123 15/47/116 63/50/120
f 13/53/122 14/54/123 63/50/120
f 10/55/124 11/56/125 63/50/120
f 11/56/125 12/52/121 63/50/120
f 8/57/126 9/58/127 63/50/120
f 9/58/127 10/55/124 63/50/120
f 7/59/128 63/50/120 64/60/129
f 7/59/128 8/57/126 63/50/120
f 6/61/130 7/59/128 65/63/131 66/62/132
f 7/59/128 64/60/129 65/63/131
f 3/64/133 4/65/134 66/62/132
f 5/66/135 6/61/130 66/62/132
f 4/65/134 5/66/135 66/62/132
f 2/67/136 66/62/132 67/68/137
f 2/67/136 3/64/133 66/62/132
f 1/69/138 2/67/136 67/68/137
f 42/139/72 41/140/71 72/141/3 71/142/2
f 41/249/71 40/250/70 70/251/1 72/252/3
f 44/255/75 43/256/74 75/257/6 74/258/5
f 40/250/70 39/253/73 73/254/4 70/251/1
f 43/143/74 42/139/72 71/142/2 75/144/6
f 46/145/78 45/146/77 78/147/9 77/148/8
f 39/191/73 38/192/76 76/193/7 73/194/4
f 45/146/77 44/149/75 74/150/5 78/147/9
f 47/151/79 46/145/78 77/148/8 79/152/10
f 48/153/81 47/151/79 79/152/10 81/154/12
f 38/192/76 37/195/80 80/196/11 76/193/7
f 49/155/83 48/153/81 81/154/12 83/156/14
f 37/195/80 36/197/82 82/198/13 80/196/11
f 51/159/85 50/157/84 85/158/16 84/160/15
f 50/157/84 49/155/83 83/156/14 85/158/16
f 53/163/88 52/161/87 88/162/19 87/164/18
f 31/259/89 30/260/86 86/261/17 90/262/21
f 36/263/82 35/264/90 89/265/20 82/266/13
f 33/199/92 32/200/91 91/201/22 92/202/23
f 32/200/91 31/203/89 90/204/21 91/201/22
f 35/264/90 34/267/93 93/268/24 89/265/20
f 34/205/93 33/199/92 92/202/23 93/206/24
f 52/161/87 51/326/85 84/325/15 88/162/19
f 55/167/95 54/165/94 95/166/26 94/168/25
f 54/165/94 53/163/88 87/164/18 95/166/26
f 56/169/97 55/167/95 94/168/25 97/170/28
f 25/269/99 24/270/98 98/271/29 99/272/30
f 24/270/98 23/273/96 96/274/27 98/271/29
f 26/275/100 25/269/99 99/272/30 100/276/31
f 27/207/102 68/208/101 101/209/32 102/210/33
f 68/208/101 26/211/100 100/212/31 101/209/32
f 30/277/86 29/278/104 104/279/35 86/280/17
f 29/278/104 28/281/103 103/282/34 104/279/35
f 28/213/103 27/207/102 102/210/33 103/214/34
f 58/173/108 57/321/107 107/322/38 106/174/37
f 22/216/106 21/219/105 105/220/36 108/217/39
f 57/171/107 56/169/97 97/170/28 107/172/38
f 23/215/96 22/216/106 108/217/39 96/218/27
f 20/283/110 19/284/109 109/285/40 110/286/41
f 21/287/105 20/283/110 110/286/41 105/288/36
f 69/221/112 17/222/111 111/223/42 112/224/43
f 19/229/109 18/227/113 113/228/44 109/230/40
f 18/227/113 69/221/112 112/224/43 113/228/44
f 17/222/111 16/225/114 114/226/45 111/223/42
f 59/175/115 58/173/108 106/174/37 115/176/46
f 61/179/118 60/177/117 118/178/49 117/180/48
f 60/177/117 59/175/115 115/176/46 118/178/49
f 16/289/114 15/290/116 116/291/47 114/292/45
f 63/183/120 62/181/119 120/182/51 119/184/50
f 62/181/119 61/324/118 117/323/48 120/182/51
f 13/237/122 12/231/121 121/234/52 122/238/53
f 15/293/116 14/294/123 123/295/54 116/296/47
f 14/294/123 13/297/122 122/298/53 123/295/54
f 11/232/125 10/235/124 124/236/55 125/233/56
f 12/231/121 11/232/125 125/233/56 121/234/52
f 9/299/127 8/300/126 126/301/57 127/302/58
f 10/305/124 9/299/127 127/302/58 124/306/55
f 64/185/129 63/183/120 119/184/50 129/186/60
f 8/300/126 7/303/128 128/304/59 126/301/57
f 66/189/132 65/187/131 132/188/63 131/190/62
f 7/239/128 6/240/130 130/241/61 128/242/59
f 65/187/131 64/185/129 129/186/60 132/188/63
f 4/307/134 3/308/133 133/309/64 134/310/65
f 6/240/130 5/243/135 135/244/66 130/241/61
f 5/313/135 4/307/134 134/310/65 135/314/66
f 67/317/137 66/318/132 131/319/62 137/320/68
f 3/308/133 2/311/136 136/312/67 133/309/64
f 1/245/138 67/246/137 137/247/68 138/248/69
f 2/311/136 1/315/138 138/316/69 136/312/67
