# This file uses centimeters as units for non-parametric coordinates.

g default
v -0.135226 0.067044 3.258122
v -0.067620 0.134651 3.258122
v -0.110401 0.055206 -3.304531
v -0.055206 0.110401 -3.304531
v 0.067620 0.134651 3.258122
v 0.135226 0.067044 3.258122
v 0.110401 0.055206 -3.304531
v 0.055206 0.110401 -3.304531
v -0.067620 -0.135802 3.258122
v -0.135226 -0.068196 3.258122
v -0.110401 -0.055206 -3.304531
v -0.055206 -0.110401 -3.304531
v 0.135226 -0.068196 3.258122
v 0.067620 -0.135802 3.258122
v 0.055206 -0.110401 -3.304531
v 0.110401 -0.055206 -3.304531
v -0.103202 -0.206959 3.258122
v -0.206383 -0.103777 3.258122
v 0.103202 -0.206959 3.258122
v 0.206383 -0.103777 3.258122
v 0.206383 0.102626 3.258122
v 0.103202 0.205808 3.258122
v -0.103202 0.205808 3.258122
v -0.206383 0.102626 3.258122
v -0.103202 -0.206959 3.369794
v -0.206383 -0.103777 3.369794
v 0.103202 -0.206959 3.369794
v 0.206383 -0.103777 3.369794
v 0.206383 0.102626 3.369794
v 0.103202 0.205808 3.369794
v -0.103202 0.205808 3.369794
v -0.206383 0.102626 3.369794
v -0.135224 -0.271432 3.472497
v -0.270421 -0.136234 3.472497
v 0.135224 -0.271432 3.472497
v 0.270421 -0.136234 3.472497
v 0.270421 0.134213 3.472497
v 0.135224 0.269411 3.472497
v -0.135224 0.269411 3.472497
v -0.270421 0.134213 3.472497
v -0.135224 -0.271432 3.699621
v -0.270421 -0.136234 3.699621
v 0.135224 -0.271432 3.699621
v 0.270421 -0.136234 3.699621
v 0.270421 0.134213 3.699621
v 0.135224 0.269411 3.699621
v -0.135224 0.269411 3.699621
v -0.270421 0.134213 3.699621
v -0.079505 -0.160005 3.863714
v -0.158995 -0.080515 3.789485
v 0.079505 -0.160005 3.863714
v 0.158995 -0.080515 3.789485
v 0.158995 0.078494 3.789485
v 0.079505 0.157984 3.863714
v -0.079505 0.157984 3.863714
v -0.158995 0.078494 3.789485
v -0.093714 -0.723978 3.507357
v 0.093714 -0.723978 3.507357
v 0.093714 -0.723978 3.664760
v -0.093714 -0.723978 3.664760
v 0.000000 -1.073135 3.513588
v -0.110401 0.055206 2.706998
v -0.110401 -0.055206 2.706998
v -0.055206 -0.110401 2.706998
v 0.055206 -0.110401 2.706998
v 0.110401 -0.055206 2.706998
v 0.110401 0.055206 2.706998
v 0.055206 0.110401 2.706998
v -0.055206 0.110401 2.706998
vt 0.067238 0.998008
vt 0.069210 0.914364
vt 0.085967 0.914364
vt 0.087764 0.998008
vt 0.056978 0.998008
vt 0.060833 0.914364
vt 0.069210 0.001992
vt 0.085967 0.001992
vt 0.098024 0.998008
vt 0.094344 0.914364
vt 0.060833 0.001992
vt 0.094344 0.001992
vt 0.134089 0.085636
vt 0.117332 0.085636
vt 0.115361 0.001992
vt 0.135886 0.001992
vt 0.117332 0.998008
vt 0.134089 0.998008
vt 0.105100 0.001992
vt 0.108955 0.085636
vt 0.146147 0.001992
vt 0.142466 0.085636
vt 0.108955 0.998008
vt 0.142466 0.998008
vt 0.676793 0.767603
vt 0.676793 0.851161
vt 0.631586 0.851161
vt 0.631586 0.767603
vt 0.676793 0.892932
vt 0.631586 0.892932
vt 0.590008 0.863948
vt 0.590008 0.754463
vt 0.676793 0.725831
vt 0.631586 0.725831
vt 0.590008 0.918680
vt 0.498062 0.863948
vt 0.498062 0.754463
vt 0.590008 0.699731
vt 0.498062 0.918680
vt 0.461682 0.841391
vt 0.461682 0.777020
vt 0.498062 0.699731
vt 0.431632 0.873571
vt 0.431632 0.744840
vt 0.512174 0.516527
vt 0.575896 0.516527
vt 0.573373 0.375178
vt 0.169973 0.851161
vt 0.169973 0.767603
vt 0.215181 0.767603
vt 0.215181 0.851161
vt 0.169973 0.725831
vt 0.215181 0.725831
vt 0.256758 0.754463
vt 0.256758 0.863948
vt 0.169973 0.892932
vt 0.215181 0.892932
vt 0.256758 0.699731
vt 0.348705 0.754463
vt 0.348705 0.863948
vt 0.256758 0.918680
vt 0.348705 0.699731
vt 0.385085 0.777020
vt 0.385085 0.841391
vt 0.348705 0.918680
vt 0.270871 0.516527
vt 0.334592 0.516527
vt 0.415135 0.744840
vt 0.415135 0.873571
vt 0.273393 0.375178
vt 0.019908 0.085636
vt 0.003151 0.085636
vt 0.001267 0.001992
vt 0.021792 0.001992
vt 0.003151 0.998008
vt 0.019908 0.998008
vt 0.029215 0.998008
vt 0.031099 0.914364
vt 0.047856 0.914364
vt 0.049740 0.998008
vt 0.031099 0.001992
vt 0.047856 0.001992
vt 0.371964 0.426044
vt 0.371964 0.342486
vt 0.417172 0.342486
vt 0.417172 0.426044
vt 0.458749 0.329522
vt 0.458749 0.439007
vt 0.914374 0.581893
vt 0.830815 0.581893
vt 0.830815 0.536685
vt 0.914374 0.536685
vt 0.817852 0.495108
vt 0.927337 0.495108
vt 0.817852 0.403161
vt 0.927337 0.403161
vt 0.840409 0.336731
vt 0.904780 0.336731
vt 0.309839 0.128397
vt 0.332183 0.106052
vt 0.332183 0.195439
vt 0.309839 0.173094
vt 0.376881 0.106052
vt 0.376881 0.195439
vt 0.399226 0.128397
vt 0.399226 0.173094
vt 0.653030 0.380375
vt 0.680399 0.407744
vt 0.665994 0.436551
vt 0.624223 0.394779
vt 0.735148 0.407744
vt 0.749552 0.436551
vt 0.653030 0.325626
vt 0.624223 0.311221
vt 0.762517 0.380375
vt 0.791323 0.394779
vt 0.680399 0.298256
vt 0.665994 0.269450
vt 0.762517 0.325626
vt 0.791323 0.311221
vt 0.735148 0.298256
vt 0.749552 0.269450
vt 0.708638 0.838553
vt 0.773010 0.838553
vt 0.773010 0.967285
vt 0.708638 0.967285
vt 0.686082 0.793444
vt 0.795567 0.793444
vt 0.702886 0.610240
vt 0.778762 0.610240
vt 0.740824 0.468891
vt 0.831263 0.653915
vt 0.940748 0.653915
vt 0.923943 0.837119
vt 0.848067 0.837119
vt 0.886005 0.978469
vn 0.316105 0.948713 -0.004573
vn -0.316105 0.948713 -0.004573
vn -0.303568 0.907964 -0.288873
vn 0.303568 0.907964 -0.288873
vn -0.303221 -0.907499 -0.290693
vn -0.316121 -0.948707 -0.004760
vn 0.316121 -0.948707 -0.004760
vn 0.303221 -0.907499 -0.290693
vn 0.907565 -0.303571 -0.290122
vn 0.948717 -0.316093 -0.004698
vn 0.948704 0.316133 -0.004635
vn 0.907899 0.303219 -0.289444
vn -0.948704 0.316133 -0.004635
vn -0.948717 -0.316093 -0.004698
vn -0.907565 -0.303571 -0.290122
vn -0.907899 0.303219 -0.289444
vn -0.948615 0.316163 -0.013065
vn -0.316070 0.948335 -0.027576
vn -0.316070 -0.948335 -0.027576
vn -0.948615 -0.316163 -0.013065
vn -0.205021 -0.421814 0.883198
vn -0.205021 0.421815 0.883198
vn -0.657649 0.131861 0.741694
vn -0.657649 -0.131861 0.741694
vn -0.290053 -0.870273 -0.398113
vn -0.870272 -0.290054 -0.398114
vn 0.290053 -0.870273 -0.398113
vn 0.870272 -0.290054 -0.398114
vn 0.870273 0.290054 -0.398114
vn 0.290053 0.870273 -0.398113
vn -0.290054 0.870273 -0.398113
vn -0.870273 0.290054 -0.398114
vn -0.291497 -0.887982 -0.355694
vn -0.888582 -0.291175 -0.354456
vn 0.291497 -0.887982 -0.355694
vn 0.888582 -0.291175 -0.354456
vn 0.888821 0.291974 -0.353197
vn 0.291650 0.889419 -0.351958
vn -0.291650 0.889419 -0.351958
vn -0.888821 0.291974 -0.353197
vn -0.655661 -0.406674 -0.636179
vn -0.933356 -0.314335 -0.173319
vn 0.655661 -0.406674 -0.636179
vn 0.933356 -0.314335 -0.173319
vn 0.933590 0.313939 -0.172781
vn 0.314281 0.933593 -0.172141
vn -0.314281 0.933593 -0.172141
vn -0.933590 0.313939 -0.172780
vn -0.631248 -0.414476 0.655541
vn -0.919577 -0.300573 0.253050
vn 0.919577 -0.300573 0.253050
vn 0.631249 -0.414476 0.655541
vn 0.919577 0.300573 0.253050
vn 0.318250 0.914747 0.248907
vn -0.318250 0.914747 0.248907
vn -0.919577 0.300573 0.253050
vn 0.205021 -0.421814 0.883198
vn 0.657649 -0.131861 0.741694
vn 0.657649 0.131861 0.741694
vn 0.205021 0.421815 0.883198
vn 0.648335 -0.134647 -0.749355
vn -0.648335 -0.134647 -0.749355
vn 0.619857 -0.190276 0.761297
vn -0.619857 -0.190276 0.761297
vn 0.000000 -0.994820 -0.101655
vn 0.316070 -0.948335 -0.027576
vn 0.948615 -0.316163 -0.013065
vn 0.948615 0.316163 -0.013065
vn 0.316070 0.948335 -0.027576
s 1
g Cane
f 68/71/1 69/72/2 2/73/3 5/74/4
f 9/77/5 64/78/6 65/79/7 14/80/8
f 13/1/9 66/2/10 67/3/11 6/4/12
f 62/13/13 63/14/14 10/15/15 1/16/16
f 3/99/17 4/100/18 12/101/19 11/102/20
f 49/68/21 55/69/22 56/64/23 50/63/24
f 1/16/16 2/21/3 69/22/2 62/13/13
f 5/9/4 6/4/12 67/3/11 68/10/1
f 9/19/5 10/15/15 63/14/14 64/20/6
f 13/1/9 14/5/8 65/6/7 66/2/10
f 10/107/15 9/108/5 17/109/25 18/110/26
f 9/108/5 14/111/8 19/112/27 17/109/25
f 14/111/8 13/115/9 20/116/28 19/112/27
f 13/115/9 6/119/12 21/120/29 20/116/28
f 6/119/12 5/121/4 22/122/30 21/120/29
f 5/121/4 2/117/3 23/118/31 22/122/30
f 2/117/3 1/113/16 24/114/32 23/118/31
f 1/113/16 10/107/15 18/110/26 24/114/32
f 18/49/26 17/52/25 25/53/33 26/50/34
f 17/83/25 19/84/27 27/85/35 25/86/33
f 19/33/27 20/25/28 28/28/36 27/34/35
f 20/25/28 21/26/29 29/27/37 28/28/36
f 21/26/29 22/29/30 30/30/38 29/27/37
f 22/89/30 23/90/31 31/91/39 30/92/38
f 23/56/31 24/48/32 32/51/40 31/57/39
f 24/48/32 18/49/26 26/50/34 32/51/40
f 26/50/34 25/53/33 33/58/41 34/54/42
f 25/86/33 27/85/35 35/87/43 33/88/41
f 27/34/35 28/28/36 36/32/44 35/38/43
f 28/28/36 29/27/37 37/31/45 36/32/44
f 29/27/37 30/30/38 38/35/46 37/31/45
f 30/92/38 31/91/39 39/93/47 38/94/46
f 31/57/39 32/51/40 40/55/48 39/61/47
f 32/51/40 26/50/34 34/54/42 40/55/48
f 34/54/42 33/58/41 41/62/49 42/59/50
f 35/38/43 36/32/44 44/37/51 43/42/52
f 36/32/44 37/31/45 45/36/53 44/37/51
f 37/31/45 38/35/46 46/39/54 45/36/53
f 38/94/46 39/93/47 47/95/55 46/96/54
f 39/61/47 40/55/48 48/60/56 47/65/55
f 40/55/48 34/54/42 42/59/50 48/60/56
f 42/59/50 41/62/49 49/68/21 50/63/24
f 41/127/49 43/128/52 51/124/57 49/123/21
f 43/42/52 44/37/51 52/41/58 51/44/57
f 44/37/51 45/36/53 53/40/59 52/41/58
f 45/36/53 46/39/54 54/43/60 53/40/59
f 46/96/54 47/95/55 55/97/22 54/98/60
f 47/65/55 48/60/56 56/64/23 55/69/22
f 48/60/56 42/59/50 50/63/24 56/64/23
f 54/43/60 51/44/57 52/41/58 53/40/59
f 49/123/21 51/124/57 54/125/60 55/126/22
f 33/132/41 35/133/43 58/134/61 57/135/62
f 35/38/43 43/42/52 59/45/63 58/46/61
f 43/128/52 41/127/49 60/129/64 59/130/63
f 41/62/49 33/58/41 57/66/62 60/67/64
f 57/135/62 58/134/61 61/136/65
f 58/46/61 59/45/63 61/47/65
f 59/130/63 60/129/64 61/131/65
f 60/67/64 57/66/62 61/70/65
f 11/17/20 63/14/14 62/13/13 3/18/17
f 64/20/6 63/14/14 11/17/20 12/23/19
f 65/79/7 64/78/6 12/81/19 15/82/66
f 66/2/10 65/6/7 15/11/66 16/7/67
f 67/3/11 66/2/10 16/7/67 7/8/68
f 68/10/1 67/3/11 7/8/68 8/12/69
f 4/75/18 69/72/2 68/71/1 8/76/69
f 62/13/13 69/22/2 4/24/18 3/18/17
f 15/104/66 8/103/69 7/105/68 16/106/67
f 12/101/19 4/100/18 8/103/69 15/104/66
