# This file uses centimeters as units for non-parametric coordinates.

mtllib Boardwalk_game_ready.mtl
g default
v 0.059226 -0.008716 0.908870
v -0.043364 -0.009727 0.855771
v -0.038395 -0.018470 0.849289
v 0.058356 -0.019597 0.892793
v 0.072309 0.032904 0.393808
v -0.062660 0.028798 0.393808
v -0.044026 0.033609 0.814678
v 0.064095 0.036506 0.823836
v -0.060175 0.032991 -0.541055
v 0.075303 0.046013 -0.557130
v 0.059362 0.016156 -0.776802
v -0.037936 -0.000496 -0.751261
v -0.034473 0.037359 -0.739983
v 0.054684 0.055330 -0.763456
v 0.216029 -0.014682 0.393808
v 0.205584 -0.009299 0.812636
v 0.195668 -0.019784 0.813252
v 0.197422 -0.025694 0.393808
v 0.197664 -0.013633 -0.538931
v 0.191659 -0.025664 0.062273
v 0.182112 -0.024972 -0.539567
v -0.083288 -0.014682 0.393808
v -0.079390 -0.014682 -0.541030
v -0.060182 -0.025694 -0.541030
v -0.062660 -0.025694 0.393808
v 0.164222 -0.017319 0.850966
v 0.171964 -0.008942 0.860470
v 0.170407 0.034333 0.870010
v 0.057668 0.037997 0.905856
v -0.035451 0.030795 0.859348
v 0.195741 0.038265 0.813120
v 0.197422 0.023523 0.393808
v 0.176484 0.033901 -0.539075
v 0.168571 0.036875 -0.739988
v 0.172949 -0.000783 -0.745932
v 0.173915 -0.014515 -0.740779
v 0.063041 0.003642 -0.758270
v -0.029319 -0.013315 -0.738484
v -0.056104 -0.025059 0.816184
v -0.062439 -0.014797 0.815813
vt 0.164855 0.998008
vt 0.066103 0.966633
vt 0.070887 0.962804
vt 0.164018 0.988509
vt 0.494172 0.304547
vt 0.331016 0.304547
vt 0.353541 0.055867
vt 0.484243 0.050456
vt 0.334020 0.856931
vt 0.497792 0.866430
vt 0.900679 0.074097
vt 0.930625 0.135341
vt 0.862547 0.133161
vt 0.830228 0.077042
vt 0.718515 0.724681
vt 0.728197 0.923458
vt 0.709340 0.923750
vt 0.698712 0.724681
vt 0.720402 0.282001
vt 0.698766 0.567334
vt 0.700010 0.281699
vt 0.846412 0.404704
vt 0.846412 0.848380
vt 0.826609 0.848380
vt 0.826609 0.404704
vt 0.265924 0.963794
vt 0.273376 0.969410
vt 0.735259 0.072955
vt 0.734853 0.001992
vt 0.812678 0.002972
vt 0.819266 0.073936
vt 0.806315 0.132549
vt 0.733442 0.137530
vt 0.643383 0.056788
vt 0.645415 0.304547
vt 0.620104 0.855761
vt 0.863418 0.005356
vt 0.931141 0.002600
vt 0.955837 0.001992
vt 0.923185 0.071782
vt 0.164986 0.001992
vt 0.168528 0.012942
vt 0.079622 0.024633
vt 0.071328 0.017084
vt 0.275254 0.023277
vt 0.283144 0.142167
vt 0.292335 0.497778
vt 0.297882 0.693673
vt 0.296193 0.941510
vt 0.787224 0.724681
vt 0.805887 0.281933
vt 0.813735 0.923687
vt 0.827750 0.204244
vt 0.846206 0.204419
vt 0.924607 0.404704
vt 0.933258 0.204958
vt 0.932146 0.848392
vt 0.743512 0.183758
vt 0.718817 0.186204
vt 0.811235 0.186579
vt 0.472866 0.988342
vt 0.610538 0.974475
vt 0.365089 0.974472
vt 0.940003 0.942804
vt 0.871925 0.948156
vt 0.848871 0.942092
vt 0.476473 0.001992
vt 0.363907 0.029472
vt 0.612758 0.023173
vt 0.806664 0.950687
vt 0.728839 0.946159
vt 0.713773 0.941649
vt 0.053840 0.943243
vt 0.047530 0.693673
vt 0.049914 0.141303
vt 0.855325 0.185456
vt 0.839600 0.188532
vt 0.928198 0.183758
vn -0.184544 -0.806155 0.562190
vn -0.184544 -0.806155 0.562190
vn -0.184544 -0.806155 0.562190
vn -0.184544 -0.806155 0.562190
vn 0.012431 0.999737 -0.019286
vn 0.012431 0.999737 -0.019286
vn 0.012431 0.999737 -0.019286
vn 0.012431 0.999737 -0.019286
vn 0.002498 0.999869 -0.015993
vn 0.002498 0.999869 -0.015993
vn -0.079681 -0.177984 -0.980802
vn -0.079681 -0.177984 -0.980802
vn -0.047426 0.570042 -0.820245
vn -0.047426 0.570042 -0.820245
vn 0.489108 -0.872069 -0.016395
vn 0.489108 -0.872069 -0.016395
vn 0.489108 -0.872069 -0.016395
vn 0.489108 -0.872069 -0.016395
vn 0.536555 -0.843816 0.009180
vn 0.536555 -0.843815 0.009180
vn 0.536555 -0.843816 0.009180
vn -0.476662 -0.879086 0.001155
vn -0.486998 -0.873399 -0.002548
vn -0.486998 -0.873399 -0.002548
vn -0.476662 -0.879086 0.001155
vn 0.110090 -0.832969 0.542257
vn 0.110090 -0.832969 0.542257
vn 0.176183 -0.060562 0.982493
vn 0.176183 -0.060562 0.982493
vn 0.136765 0.307271 0.941743
vn 0.136765 0.307271 0.941743
vn -0.244415 -0.235779 0.940569
vn -0.216541 0.461002 0.860574
vn -0.216541 0.461002 0.860574
vn -0.244415 -0.235779 0.940569
vn 0.026587 0.999408 -0.021847
vn 0.026587 0.999408 -0.021847
vn 0.091370 0.995817 -0.000835
vn 0.034390 -0.234433 -0.971524
vn 0.017355 0.558148 -0.829560
vn 0.017355 0.558148 -0.829560
vn 0.034390 -0.234433 -0.971524
vn -0.046419 -0.813278 -0.580021
vn -0.046419 -0.813278 -0.580021
vn -0.046419 -0.813278 -0.580021
vn -0.046419 -0.813278 -0.580021
vn -0.046419 -0.813278 -0.580021
vn -0.046419 -0.813278 -0.580021
vn -0.042472 -0.862998 -0.503420
vn -0.042472 -0.862998 -0.503419
vn -0.004844 -0.999742 -0.022189
vn -0.003490 -0.999994 0.000406
vn -0.002046 -0.999996 -0.002091
vn -0.004695 -0.999977 0.004816
vn 0.005997 -0.990064 0.140490
vn -0.004844 -0.999742 -0.022189
vn 0.005997 -0.990064 0.140490
vn 0.005997 -0.990064 0.140490
vn 0.005997 -0.990064 0.140490
vn -0.004844 -0.999742 -0.022189
vn 0.513942 0.857758 -0.010718
vn 0.999117 0.035125 -0.023051
vn 0.999816 0.007272 0.017758
vn 0.548254 0.836120 0.017898
vn 0.506239 0.861961 -0.027304
vn 0.997322 0.062359 -0.038208
vn -0.465401 -0.885093 0.003388
vn -0.465401 -0.885093 0.003388
vn -0.465401 -0.885093 0.003388
vn -0.465401 -0.885093 0.003388
vn -0.524608 0.851338 0.003106
vn -0.998258 0.058744 0.005456
vn -0.998258 0.058744 0.005456
vn -0.524608 0.851338 0.003106
vn -0.550270 0.834987 -0.000130
vn -0.999966 0.005386 -0.006226
vn 0.805532 -0.589371 -0.061316
vn 0.805532 -0.589371 -0.061316
vn 0.805532 -0.589371 -0.061316
vn 0.805532 -0.589371 -0.061316
vn 0.975183 0.179136 -0.130108
vn 0.666001 0.739583 -0.097256
vn 0.079435 0.996246 -0.034402
vn 0.079435 0.996246 -0.034402
vn -0.060150 0.998073 -0.015249
vn -0.611122 0.791372 -0.016118
vn -0.996958 -0.031906 -0.071106
vn -0.510811 -0.857878 -0.055831
vn -0.510811 -0.857878 -0.055831
vn -0.022649 0.998851 -0.042242
vn -0.022649 0.998851 -0.042242
vn -0.000909 0.997542 -0.070070
vn 0.499034 0.843581 0.198334
vn 0.845032 -0.219621 0.487532
vn 0.410017 -0.813835 0.411775
vn 0.410017 -0.813835 0.411775
vn 0.006184 -0.999678 -0.024594
vn -0.029198 -0.990013 0.137921
vn 0.003384 -0.999981 0.005076
vn 0.003891 -0.999991 -0.001669
vn 0.006184 -0.999678 -0.024594
vn -0.851261 0.128242 0.508830
vn -0.642695 0.710577 0.286398
s 1
g Boardwalk_game_ready:Group11_Group11_1001
usemtl Boardwalk_game_ready:set1
f 1/1/1 2/2/2 3/3/3
f 3/3/3 4/4/4 1/1/1
s 2
f 5/5/5 6/6/6 7/7/7
f 7/7/7 8/8/8 5/5/5
f 9/9/9 6/6/6 5/5/5
f 5/5/5 10/10/10 9/9/9
s 3
f 11/11/11 12/12/12 13/13/13
f 13/13/13 14/14/14 11/11/11
s 4
f 15/15/15 16/16/16 17/17/17
f 17/17/17 18/18/18 15/15/15
f 19/19/19 15/15/15 18/18/18
f 19/19/19 18/18/18 20/20/20
f 20/20/20 21/21/21 19/19/19
s 5
f 22/22/22 23/23/23 24/24/24
f 24/24/24 25/25/25 22/22/22
s 1
f 1/1/1 4/4/4 26/26/26
f 26/26/26 27/27/27 1/1/1
s 6
f 1/28/28 27/29/29 28/30/30
f 28/30/30 29/31/31 1/28/28
s 7
f 1/28/32 29/31/33 30/32/34
f 30/32/34 2/33/35 1/28/32
s 2
f 5/5/5 8/8/8 31/34/36
f 31/34/36 32/35/37 5/5/5
f 10/10/10 5/5/5 32/35/37
f 32/35/37 33/36/38 10/10/10
s 8
f 11/11/39 14/14/40 34/37/41
f 34/37/41 35/38/42 11/11/39
s off
f 11/11/43 35/38/44 36/39/45
s 9
f 36/39/46 37/40/47 11/11/48
f 11/41/48 37/42/47 38/43/49
f 38/43/49 12/44/50 11/41/48
s 10
f 36/45/51 21/46/52 20/47/53
f 36/45/51 20/47/53 18/48/54
f 36/45/51 18/48/54 17/49/55
s 11
f 36/45/56 17/49/57 26/26/58
f 36/45/56 26/26/58 4/4/59
f 4/4/59 37/42/60 36/45/56
s 12
f 32/50/61 15/15/62 19/19/63
f 19/19/63 33/51/64 32/50/61
f 15/15/62 32/50/61 31/52/65
f 31/52/65 16/16/66 15/15/62
s 5
f 22/22/22 25/25/25 39/53/67
s 1
f 39/53/68 40/54/69 22/22/70
s 14
f 6/55/71 22/22/72 40/54/73
f 40/54/73 7/56/74 6/55/71
f 9/57/75 23/23/76 22/22/72
f 22/22/72 6/55/71 9/57/75
s 4
f 35/58/77 19/19/19 21/21/21
s off
f 21/21/78 36/59/79 35/58/80
s 12
f 35/58/81 34/60/82 33/51/64
f 33/51/64 19/19/63 35/58/81
s 2
f 14/61/83 10/10/10 33/36/38
f 33/36/38 34/62/84 14/61/83
f 10/10/10 14/61/83 13/63/85
f 13/63/85 9/9/9 10/10/10
s 14
f 13/64/86 12/65/87 23/23/76
f 23/23/76 9/57/75 13/64/86
s 5
f 23/23/23 12/65/88 38/66/89
f 38/66/89 24/24/24 23/23/23
s 2
f 29/67/90 8/8/8 7/7/7
f 7/7/7 30/68/91 29/67/90
f 8/8/8 29/67/90 28/69/92
f 28/69/92 31/34/36 8/8/8
s 12
f 16/16/66 31/52/65 28/70/93
f 28/70/93 27/71/94 16/16/66
s 1
f 16/16/95 27/71/27 26/72/26
f 26/72/26 17/17/96 16/16/95
s 11
f 38/43/97 37/42/60 4/4/59
f 38/43/97 4/4/59 3/3/98
f 38/43/97 3/3/98 39/73/99
f 38/43/97 39/73/99 25/74/100
f 25/74/100 24/75/101 38/43/97
s 1
f 2/76/2 40/54/69 39/53/68
f 39/53/68 3/77/3 2/76/2
s 14
f 7/56/74 40/54/73 2/76/102
f 2/76/102 30/78/103 7/56/74
