# File produced by Open Asset Import Library (http://www.assimp.sf.net)
# (assimp v3.1.193236683)

mtllib carmens house_game_ready.mtl

# 69 vertex positions
v  5.83295 3.17174 -1.85433
v  5.87064 1.52379 -1.86583
v  5.01301 1.52379 -3.54903
v  4.98061 3.17174 -3.52714
v  3.67722 1.52379 -4.88482
v  3.65306 3.17174 -4.85469
v  1.99402 1.52379 -5.74245
v  1.98025 3.17174 -5.70702
v  0.128188 1.52379 -6.03797
v  0.125927 3.17174 -6.00072
v  -1.73765 1.52379 -5.74245
v  -1.7284 3.17174 -5.70702
v  -3.42084 1.52379 -4.88482
v  -3.40121 3.17174 -4.85468
v  -4.75663 1.52379 -3.54903
v  -4.72876 3.17174 -3.52713
v  -5.61426 1.52379 -1.86583
v  -5.5811 3.17174 -1.85432
v  -5.90978 1.52379 6.65989e-09
v  -5.87479 3.17174 0
v  -5.61426 1.52379 1.86583
v  -5.5811 3.17174 1.85432
v  -4.75663 1.52379 3.54903
v  -4.72876 3.17174 3.52713
v  -3.42084 1.52379 4.88481
v  -3.40121 3.17174 4.85468
v  -1.73765 1.52379 5.74244
v  -1.7284 3.17174 5.70702
v  0.128188 1.52379 6.03796
v  0.125927 3.17174 6.00072
v  1.99402 1.52379 5.74244
v  1.98025 3.17174 5.70702
v  3.67721 1.52379 4.88481
v  3.65306 3.17174 4.85468
v  5.013 1.52379 3.54903
v  4.98061 3.17174 3.52713
v  5.87063 1.52379 1.86583
v  5.83295 3.17174 1.85432
v  6.0332 1.52379 0.839399
v  5.99452 3.17174 0.834221
v  5.69972 0.219199 0.792316
v  5.54627 0.219199 1.76118
v  4.73674 0.219199 3.34995
v  3.47588 0.219199 4.61082
v  1.8871 0.219199 5.42034
v  0.125927 0.219199 5.69928
v  -1.63525 0.219199 5.42034
v  -3.22403 0.219199 4.61082
v  -4.48489 0.219199 3.34996
v  -5.29441 0.219199 1.76118
v  -5.57336 0.219199 -5.39007e-08
v  -5.29441 0.219199 -1.76118
v  -4.48489 0.219199 -3.34996
v  -3.22403 0.219199 -4.61082
v  -1.63525 0.219199 -5.42034
v  0.125927 0.219199 -5.69929
v  1.8871 0.219199 -5.42034
v  3.47588 0.219199 -4.61082
v  4.73675 0.219199 -3.34996
v  5.54627 0.219199 -1.76118
v  5.68425 0.219199 -0.889974
v  5.97823 3.17174 -0.937044
v  6.01682 1.52379 -0.94286
v  5.43356 3.22768 0.839378
v  5.45249 1.5817 0.844738
v  5.13876 0.275134 0.797473
v  5.1233 0.275134 -0.884817
v  5.41727 3.22768 -0.931887
v  5.43611 1.5817 -0.937522

# 112 UV coordinates
vt 0.120447 0.5045 0
vt 0.120882 0.232753 0
vt 0.184423 0.232753 0
vt 0.183597 0.5045 0
vt 0.23485 0.232753 0
vt 0.233712 0.5045 0
vt 0.525822 0.0176252 0
vt 0.526783 0.289373 0
vt 0.459793 0.289373 0
vt 0.459245 0.0176252 0
vt 0.385533 0.289373 0
vt 0.385443 0.0176252 0
vt 0.311274 0.289373 0
vt 0.311642 0.0176252 0
vt 0.244283 0.289373 0
vt 0.245064 0.0176252 0
vt 0.546533 0.5045 0
vt 0.545218 0.232753 0
vt 0.603515 0.232753 0
vt 0.60447 0.5045 0
vt 0.676972 0.232753 0
vt 0.677475 0.5045 0
vt 0.758401 0.232753 0
vt 0.758401 0.5045 0
vt 0.839829 0.232753 0
vt 0.839327 0.5045 0
vt 0.913287 0.232753 0
vt 0.912332 0.5045 0
vt 0.971583 0.232753 0
vt 0.970268 0.5045 0
vt 0.290133 0.985181 0
vt 0.288851 0.732307 0
vt 0.398796 0.732307 0
vt 0.3994 0.985181 0
vt 0.52067 0.732307 0
vt 0.520523 0.985181 0
vt 0.642546 0.732307 0
vt 0.641646 0.985181 0
vt 0.75249 0.732307 0
vt 0.750913 0.985181 0
vt 0.0128837 0.985181 0
vt 0.0109156 0.732307 0
vt 0.0981686 0.732307 0
vt 0.0995983 0.985181 0
vt 0.208113 0.732307 0
vt 0.208865 0.985181 0
vt 0.275159 0.732307 0
vt 0.275497 0.985181 0
vt 0.987061 0.689116 0
vt 0.984137 0.707574 0
vt 0.968715 0.737843 0
vt 0.944694 0.761864 0
vt 0.914425 0.777286 0
vt 0.880873 0.7826 0
vt 0.84732 0.777286 0
vt 0.817052 0.761864 0
vt 0.793031 0.737843 0
vt 0.777608 0.707574 0
vt 0.772294 0.674022 0
vt 0.777608 0.640469 0
vt 0.793031 0.610201 0
vt 0.817052 0.586179 0
vt 0.84732 0.570757 0
vt 0.880873 0.565443 0
vt 0.914425 0.570757 0
vt 0.944694 0.586179 0
vt 0.968715 0.610201 0
vt 0.984137 0.640469 0
vt 0.986766 0.657066 0
vt 0.0858199 0.5045 0
vt 0.0860393 0.232753 0
vt 0.0131208 0.0176252 0
vt 0.0342971 0.0268488 0
vt 0.0357576 0.298597 0
vt 0.0138355 0.289048 0
vt 0.837969 0.796164 0
vt 0.879118 0.796542 0
vt 0.877984 0.919947 0
vt 0.836834 0.919569 0
vt 0.0542128 0.513724 0
vt 0.0549237 0.242301 0
vt 0.0768458 0.232753 0
vt 0.0753893 0.5045 0
vt 0.043115 0.026849 0
vt 0.0642915 0.0176252 0
vt 0.116931 0.0176252 0
vt 0.0840429 0.0176252 0
vt 0.176908 0.0176252 0
vt 0.224506 0.0176252 0
vt 0.51877 0.504501 0
vt 0.455537 0.504501 0
vt 0.385443 0.504501 0
vt 0.315349 0.504501 0
vt 0.252116 0.504501 0
vt 0.557176 0.0176252 0
vt 0.612202 0.0176252 0
vt 0.68154 0.0176252 0
vt 0.758401 0.0176252 0
vt 0.835262 0.0176252 0
vt 0.904599 0.0176252 0
vt 0.959626 0.0176252 0
vt 0.301706 0.532121 0
vt 0.405484 0.532121 0
vt 0.520523 0.532121 0
vt 0.635561 0.532121 0
vt 0.739339 0.532121 0
vt 0.0288128 0.532121 0
vt 0.111171 0.532121 0
vt 0.21495 0.532121 0
vt 0.278235 0.532121 0
vt 0.00199205 0.5045 0
vt 0.0231684 0.513725 0

# 96 vertex normals
vn 0.928361 -0.101421 -0.357575
vn 0.8867 -0.0981976 -0.451797
vn 0.8867 -0.0982012 -0.451796
vn 0.804833 -0.101565 -0.584746
vn 0.703689 -0.0982011 -0.703689
vn 0.703689 -0.0982067 -0.703689
vn 0.584746 -0.101565 -0.804834
vn 0.451796 -0.0982063 -0.8867
vn 0.451795 -0.0982132 -0.886699
vn 0.307419 -0.101565 -0.946139
vn 0.155678 -0.0982128 -0.982913
vn 0.155678 -0.0982205 -0.982913
vn -1.96282e-07 -0.101565 -0.994829
vn -0.155678 -0.0982201 -0.982913
vn -0.155678 -0.0982278 -0.982912
vn -0.307419 -0.101565 -0.946139
vn -0.451795 -0.0982275 -0.886698
vn -0.451795 -0.0982343 -0.886697
vn -0.584746 -0.101565 -0.804833
vn -0.703687 -0.0982341 -0.703686
vn -0.703687 -0.0982396 -0.703686
vn -0.804834 -0.101565 -0.584746
vn -0.886697 -0.0982397 -0.451794
vn -0.886696 -0.0982432 -0.451794
vn -0.946139 -0.101565 -0.307419
vn -0.98291 -0.0982426 -0.155678
vn -0.98291 -0.0982438 -0.155678
vn -0.994829 -0.101565 -7.85129e-09
vn -0.98291 -0.0982439 0.155678
vn -0.98291 -0.0982427 0.155678
vn -0.946139 -0.101565 0.307419
vn -0.886696 -0.0982431 0.451794
vn -0.886697 -0.0982396 0.451794
vn -0.804833 -0.101565 0.584746
vn -0.703686 -0.0982399 0.703687
vn -0.703687 -0.0982344 0.703687
vn -0.584746 -0.101565 0.804834
vn -0.451795 -0.0982345 0.886697
vn -0.451795 -0.0982276 0.886698
vn -0.307419 -0.101565 0.946139
vn -0.155678 -0.0982279 0.982912
vn -0.155678 -0.0982202 0.982913
vn 1.02067e-07 -0.101565 0.994829
vn 0.155678 -0.0982205 0.982913
vn 0.155678 -0.0982128 0.982913
vn 0.307419 -0.101565 0.946139
vn 0.451796 -0.0982132 0.886699
vn 0.451796 -0.0982062 0.886699
vn 0.584746 -0.101565 0.804833
vn 0.703689 -0.0982065 0.703689
vn 0.703689 -0.098201 0.703689
vn 0.804833 -0.101565 0.584746
vn 0.8867 -0.0982012 0.451796
vn 0.8867 -0.0981976 0.451796
vn 0.931035 -0.101459 0.350544
vn 0.982915 -0.0981976 0.155678
vn 0.98288 -0.0985536 0.155673
vn 0.982705 -0.100327 0.155645
vn 0 -1 3.78519e-09
vn 0 -1 3.78519e-09
vn 0.982705 -0.100327 -0.155643
vn 0.982876 -0.0985978 -0.15567
vn 0.982915 -0.0981979 -0.155676
vn -0.00770002 0.0149598 -0.999858
vn -0.00770002 0.0149598 -0.999858
vn -0.00722044 0.0197622 -0.999779
vn -0.00813948 0.0105571 -0.999911
vn 0.0992146 0.995066 -0.000912039
vn 0.0992146 0.995066 -0.000912039
vn 0.0992146 0.995066 -0.000912039
vn 0.0992146 0.995066 -0.000912039
vn 0.0106749 0.0148769 0.999832
vn 0.0102396 0.0105046 0.999892
vn 0.0111497 0.019646 0.999745
vn 0.0106749 0.0148769 0.999832
vn 0.0106749 0.0148769 0.999832
vn 0.0106749 0.0148769 0.999832
vn 0.928361 -0.101421 -0.357575
vn 0.982705 -0.100327 -0.155643
vn 0.804833 -0.101565 -0.584746
vn 0.584746 -0.101565 -0.804834
vn 0.307419 -0.101565 -0.946139
vn -2.03115e-07 -0.101565 -0.994829
vn -0.307419 -0.101565 -0.946139
vn -0.584746 -0.101565 -0.804833
vn -0.946139 -0.101565 -0.307419
vn -0.994829 -0.101565 0
vn -0.946139 -0.101565 0.307419
vn -0.804833 -0.101565 0.584746
vn -0.584746 -0.101565 0.804834
vn -0.307419 -0.101565 0.946139
vn 9.37454e-08 -0.101565 0.994829
vn 0.307419 -0.101565 0.946139
vn 0.584746 -0.101565 0.804834
vn 0.804834 -0.101565 0.584746
vn 0.982705 -0.100327 0.155645

# Mesh 'Carmens_house_Carmens_house_1001' with 109 faces
g Carmens_house_Carmens_house_1001
usemtl 1001
f  1/1/1 2/2/2 3/3/3
f  3/3/3 4/4/4 1/1/1
f  4/4/4 3/3/5 5/5/6
f  5/5/6 6/6/7 4/4/4
f  6/7/7 5/8/8 7/9/9
f  7/9/9 8/10/10 6/7/7
f  8/10/10 7/9/11 9/11/12
f  9/11/12 10/12/13 8/10/10
f  10/12/13 9/11/14 11/13/15
f  11/13/15 12/14/16 10/12/13
f  12/14/16 11/13/17 13/15/18
f  13/15/18 14/16/19 12/14/16
f  14/17/19 13/18/20 15/19/21
f  15/19/21 16/20/22 14/17/19
f  16/20/22 15/19/23 17/21/24
f  17/21/24 18/22/25 16/20/22
f  18/22/25 17/21/26 19/23/27
f  19/23/27 20/24/28 18/22/25
f  20/24/28 19/23/29 21/25/30
f  21/25/30 22/26/31 20/24/28
f  22/26/31 21/25/32 23/27/33
f  23/27/33 24/28/34 22/26/31
f  24/28/34 23/27/35 25/29/36
f  25/29/36 26/30/37 24/28/34
f  26/31/37 25/32/38 27/33/39
f  27/33/39 28/34/40 26/31/37
f  28/34/40 27/33/41 29/35/42
f  29/35/42 30/36/43 28/34/40
f  30/36/43 29/35/44 31/37/45
f  31/37/45 32/38/46 30/36/43
f  32/38/46 31/37/47 33/39/48
f  33/39/48 34/40/49 32/38/46
f  34/41/49 33/42/50 35/43/51
f  35/43/51 36/44/52 34/41/49
f  36/44/52 35/43/53 37/45/54
f  37/45/54 38/46/55 36/44/52
f  38/46/55 37/45/56 39/47/57
f  39/47/57 40/48/58 38/46/55
f  41/49/59 42/50/60 43/51/60
f  41/49/59 43/51/60 44/52/60
f  41/49/59 44/52/60 45/53/60
f  41/49/59 45/53/60 46/54/60
f  41/49/59 46/54/60 47/55/60
f  41/49/59 47/55/60 48/56/60
f  41/49/59 48/56/60 49/57/60
f  41/49/59 49/57/60 50/58/60
f  41/49/59 50/58/60 51/59/60
f  41/49/59 51/59/60 52/60/60
f  41/49/59 52/60/60 53/61/60
f  41/49/59 53/61/60 54/62/60
f  41/49/59 54/62/60 55/63/60
f  41/49/59 55/63/60 56/64/60
f  41/49/59 56/64/60 57/65/60
f  41/49/59 57/65/60 58/66/60
f  41/49/59 58/66/60 59/67/60
f  41/49/59 59/67/60 60/68/60
f  60/68/60 61/69/60 41/49/59
f  1/1/1 62/70/61 63/71/62
f  63/71/62 2/2/63 1/1/1
f  64/72/64 40/73/65 39/74/66
f  39/74/66 65/75/67 64/72/64
f  66/76/68 41/77/69 61/78/70
f  61/78/70 67/79/71 66/76/68
f  68/80/72 69/81/73 63/82/74
f  63/82/74 62/83/75 68/80/72
f  67/84/76 61/85/77 63/82/74
f  63/82/74 69/81/73 67/84/76
f  60/86/78 2/2/63 63/71/62
f  63/71/62 61/87/79 60/86/78
f  2/2/2 60/86/78 59/88/80
f  59/88/80 3/3/3 2/2/2
f  3/3/5 59/88/80 58/89/81
f  58/89/81 5/5/6 3/3/5
f  5/8/8 58/90/81 57/91/82
f  57/91/82 7/9/9 5/8/8
f  7/9/11 57/91/82 56/92/83
f  56/92/83 9/11/12 7/9/11
f  9/11/14 56/92/83 55/93/84
f  55/93/84 11/13/15 9/11/14
f  11/13/17 55/93/84 54/94/85
f  54/94/85 13/15/18 11/13/17
f  13/18/20 54/95/85 53/96/22
f  53/96/22 15/19/21 13/18/20
f  15/19/23 53/96/22 52/97/86
f  52/97/86 17/21/24 15/19/23
f  17/21/26 52/97/86 51/98/87
f  51/98/87 19/23/27 17/21/26
f  19/23/29 51/98/87 50/99/88
f  50/99/88 21/25/30 19/23/29
f  21/25/32 50/99/88 49/100/89
f  49/100/89 23/27/33 21/25/32
f  23/27/35 49/100/89 48/101/90
f  48/101/90 25/29/36 23/27/35
f  25/32/38 48/102/90 47/103/91
f  47/103/91 27/33/39 25/32/38
f  27/33/41 47/103/91 46/104/92
f  46/104/92 29/35/42 27/33/41
f  29/35/44 46/104/92 45/105/93
f  45/105/93 31/37/45 29/35/44
f  31/37/47 45/105/93 44/106/94
f  44/106/94 33/39/48 31/37/47
f  33/42/50 44/107/94 43/108/95
f  43/108/95 35/43/51 33/42/50
f  35/43/53 43/108/95 42/109/55
f  42/109/55 37/45/54 35/43/53
f  37/45/56 42/109/55 41/110/96
f  41/110/96 39/47/57 37/45/56
f  66/111/65 65/75/67 39/74/66
f  39/74/66 41/112/64 66/111/65

