# This file uses centimeters as units for non-parametric coordinates.

mtllib FloorLeaves.mtl
g default
v -0.426777 -0.000000 0.426777
v 0.426777 -0.000000 0.426777
v -0.426777 0.000000 -0.426777
v 0.426777 0.000000 -0.426777
v 0.000000 -0.000000 0.603553
v 0.000000 0.000000 -0.603553
v -0.603553 0.000000 -0.000000
v 0.000000 0.062970 0.000000
v 0.603553 0.000000 -0.000000
vt 0.001992 0.500000
vt 0.500000 0.500000
vt 0.147855 0.852145
vt 0.147855 0.147855
vt 0.500000 0.998008
vt 0.500000 0.001992
vt 0.852145 0.852145
vt 0.852145 0.147855
vt 0.998008 0.500000
vn -0.103769 0.994601 -0.000000
vn -0.000000 1.000000 0.000000
vn -0.073376 0.994601 -0.073376
vn 0.073376 0.994601 -0.073376
vn 0.103769 0.994601 0.000000
vn -0.073376 0.994601 0.073376
vn 0.073376 0.994601 0.073376
vn 0.000000 0.994601 0.103769
vn 0.000000 0.994601 -0.103769
s 1
g FloorLeaves1
usemtl initialShadingGroup
f 7/1/1 8/2/2 3/3/3
f 4/7/4 8/2/2 9/9/5
f 1/4/6 8/2/2 7/1/1
f 9/9/5 8/2/2 2/8/7
f 1/4/6 5/6/8 8/2/2
f 3/3/3 8/2/2 6/5/9
f 6/5/9 8/2/2 4/7/4
f 2/8/7 8/2/2 5/6/8
